<svg width="306" height="97" viewBox="0 0 306 97" fill="none" xmlns="http://www.w3.org/2000/svg">
<g filter="url(#filter0_d_9_25)">
<path d="M16 78.25V71.75H88V78.25H16ZM88 36V26.25H80V36H88ZM88 19.75C90.1217 19.75 92.1566 20.4348 93.6569 21.6538C95.1571 22.8728 96 24.5261 96 26.25V36C96 37.7239 95.1571 39.3772 93.6569 40.5962C92.1566 41.8152 90.1217 42.5 88 42.5H80V52.25C80 55.6978 78.3143 59.0044 75.3137 61.4424C72.3131 63.8804 68.2435 65.25 64 65.25H40C35.7565 65.25 31.6869 63.8804 28.6863 61.4424C25.6857 59.0044 24 55.6978 24 52.25V19.75H88ZM72 26.25H32V52.25C32 53.9739 32.8429 55.6272 34.3431 56.8462C35.8434 58.0652 37.8783 58.75 40 58.75H64C66.1217 58.75 68.1566 58.0652 69.6569 56.8462C71.1571 55.6272 72 53.9739 72 52.25V26.25Z" fill="black"/>
</g>
<g filter="url(#filter1_d_9_25)">
<path d="M148.031 36.5H143.188C142.901 35.1068 142.4 33.8828 141.684 32.8281C140.98 31.7734 140.121 30.888 139.105 30.1719C138.103 29.4427 136.99 28.8958 135.766 28.5312C134.542 28.1667 133.266 27.9844 131.938 27.9844C129.516 27.9844 127.322 28.5964 125.355 29.8203C123.402 31.0443 121.846 32.8477 120.688 35.2305C119.542 37.6133 118.969 40.5365 118.969 44C118.969 47.4635 119.542 50.3867 120.688 52.7695C121.846 55.1523 123.402 56.9557 125.355 58.1797C127.322 59.4036 129.516 60.0156 131.938 60.0156C133.266 60.0156 134.542 59.8333 135.766 59.4687C136.99 59.1042 138.103 58.5638 139.105 57.8477C140.121 57.1185 140.98 56.2266 141.684 55.1719C142.4 54.1042 142.901 52.8802 143.188 51.5H148.031C147.667 53.5443 147.003 55.3737 146.039 56.9883C145.076 58.6029 143.878 59.9766 142.445 61.1094C141.013 62.2292 139.405 63.082 137.621 63.668C135.85 64.2539 133.956 64.5469 131.938 64.5469C128.526 64.5469 125.492 63.7135 122.836 62.0469C120.18 60.3802 118.09 58.0104 116.566 54.9375C115.043 51.8646 114.281 48.2187 114.281 44C114.281 39.7812 115.043 36.1354 116.566 33.0625C118.09 29.9896 120.18 27.6198 122.836 25.9531C125.492 24.2865 128.526 23.4531 131.938 23.4531C133.956 23.4531 135.85 23.7461 137.621 24.332C139.405 24.918 141.013 25.7773 142.445 26.9102C143.878 28.0299 145.076 29.3971 146.039 31.0117C147.003 32.6133 147.667 34.4427 148.031 36.5ZM167.421 64.625C164.713 64.625 162.336 63.9805 160.292 62.6914C158.261 61.4023 156.672 59.599 155.526 57.2812C154.394 54.9635 153.827 52.2552 153.827 49.1562C153.827 46.0312 154.394 43.3034 155.526 40.9727C156.672 38.6419 158.261 36.832 160.292 35.543C162.336 34.2539 164.713 33.6094 167.421 33.6094C170.129 33.6094 172.499 34.2539 174.53 35.543C176.575 36.832 178.163 38.6419 179.296 40.9727C180.442 43.3034 181.015 46.0312 181.015 49.1562C181.015 52.2552 180.442 54.9635 179.296 57.2812C178.163 59.599 176.575 61.4023 174.53 62.6914C172.499 63.9805 170.129 64.625 167.421 64.625ZM167.421 60.4844C169.478 60.4844 171.171 59.957 172.499 58.9023C173.827 57.8477 174.81 56.4609 175.448 54.7422C176.086 53.0234 176.405 51.1615 176.405 49.1562C176.405 47.151 176.086 45.2826 175.448 43.5508C174.81 41.819 173.827 40.4193 172.499 39.3516C171.171 38.2839 169.478 37.75 167.421 37.75C165.364 37.75 163.671 38.2839 162.343 39.3516C161.015 40.4193 160.032 41.819 159.394 43.5508C158.756 45.2826 158.437 47.151 158.437 49.1562C158.437 51.1615 158.756 53.0234 159.394 54.7422C160.032 56.4609 161.015 57.8477 162.343 58.9023C163.671 59.957 165.364 60.4844 167.421 60.4844ZM201.41 34V37.9062H185.238V34H201.41ZM190.082 64V29.8594C190.082 28.1406 190.486 26.7083 191.293 25.5625C192.1 24.4167 193.148 23.5573 194.437 22.9844C195.727 22.4115 197.087 22.125 198.52 22.125C199.652 22.125 200.577 22.2161 201.293 22.3984C202.009 22.5807 202.543 22.75 202.895 22.9062L201.566 26.8906C201.332 26.8125 201.007 26.7148 200.59 26.5977C200.186 26.4805 199.652 26.4219 198.988 26.4219C197.465 26.4219 196.365 26.806 195.688 27.5742C195.023 28.3424 194.691 29.4687 194.691 30.9531V64H190.082ZM221.229 34V37.9062H205.058V34H221.229ZM209.901 64V29.8594C209.901 28.1406 210.305 26.7083 211.112 25.5625C211.92 24.4167 212.968 23.5573 214.257 22.9844C215.546 22.4115 216.907 22.125 218.339 22.125C219.472 22.125 220.396 22.2161 221.112 22.3984C221.828 22.5807 222.362 22.75 222.714 22.9062L221.386 26.8906C221.151 26.8125 220.826 26.7148 220.409 26.5977C220.006 26.4805 219.472 26.4219 218.808 26.4219C217.284 26.4219 216.184 26.806 215.507 27.5742C214.843 28.3424 214.511 29.4687 214.511 30.9531V64H209.901ZM239.032 64.625C236.142 64.625 233.648 63.987 231.552 62.7109C229.468 61.4219 227.86 59.625 226.728 57.3203C225.608 55.0026 225.048 52.3073 225.048 49.2344C225.048 46.1615 225.608 43.4531 226.728 41.1094C227.86 38.7526 229.436 36.9167 231.454 35.6016C233.485 34.2734 235.855 33.6094 238.563 33.6094C240.126 33.6094 241.669 33.8698 243.192 34.3906C244.716 34.9115 246.103 35.7578 247.353 36.9297C248.603 38.0885 249.599 39.625 250.341 41.5391C251.083 43.4531 251.454 45.8099 251.454 48.6094V50.5625H228.329V46.5781H246.767C246.767 44.8854 246.428 43.375 245.751 42.0469C245.087 40.7187 244.136 39.6706 242.899 38.9023C241.675 38.1341 240.23 37.75 238.563 37.75C236.728 37.75 235.139 38.2057 233.798 39.1172C232.47 40.0156 231.448 41.1875 230.731 42.6328C230.015 44.0781 229.657 45.6276 229.657 47.2812V49.9375C229.657 52.2031 230.048 54.1237 230.829 55.6992C231.623 57.2617 232.724 58.4531 234.13 59.2734C235.536 60.0807 237.17 60.4844 239.032 60.4844C240.243 60.4844 241.337 60.3151 242.313 59.9766C243.303 59.625 244.156 59.1042 244.872 58.4141C245.588 57.7109 246.142 56.8385 246.532 55.7969L250.985 57.0469C250.517 58.5573 249.729 59.8854 248.622 61.0312C247.515 62.1641 246.148 63.0495 244.521 63.6875C242.893 64.3125 241.063 64.625 239.032 64.625ZM271.044 64.625C268.153 64.625 265.66 63.987 263.563 62.7109C261.48 61.4219 259.872 59.625 258.739 57.3203C257.619 55.0026 257.06 52.3073 257.06 49.2344C257.06 46.1615 257.619 43.4531 258.739 41.1094C259.872 38.7526 261.448 36.9167 263.466 35.6016C265.497 34.2734 267.867 33.6094 270.575 33.6094C272.138 33.6094 273.681 33.8698 275.204 34.3906C276.728 34.9115 278.114 35.7578 279.364 36.9297C280.614 38.0885 281.61 39.625 282.353 41.5391C283.095 43.4531 283.466 45.8099 283.466 48.6094V50.5625H260.341V46.5781H278.778C278.778 44.8854 278.44 43.375 277.763 42.0469C277.099 40.7187 276.148 39.6706 274.911 38.9023C273.687 38.1341 272.242 37.75 270.575 37.75C268.739 37.75 267.151 38.2057 265.81 39.1172C264.481 40.0156 263.459 41.1875 262.743 42.6328C262.027 44.0781 261.669 45.6276 261.669 47.2812V49.9375C261.669 52.2031 262.06 54.1237 262.841 55.6992C263.635 57.2617 264.735 58.4531 266.142 59.2734C267.548 60.0807 269.182 60.4844 271.044 60.4844C272.255 60.4844 273.349 60.3151 274.325 59.9766C275.315 59.625 276.168 59.1042 276.884 58.4141C277.6 57.7109 278.153 56.8385 278.544 55.7969L282.997 57.0469C282.528 58.5573 281.741 59.8854 280.634 61.0312C279.527 62.1641 278.16 63.0495 276.532 63.6875C274.905 64.3125 273.075 64.625 271.044 64.625Z" fill="black"/>
</g>
<defs>
<filter id="filter0_d_9_25" x="4" y="10" width="104" height="86" filterUnits="userSpaceOnUse" color-interpolation-filters="sRGB">
<feFlood flood-opacity="0" result="BackgroundImageFix"/>
<feColorMatrix in="SourceAlpha" type="matrix" values="0 0 0 0 0 0 0 0 0 0 0 0 0 0 0 0 0 0 127 0" result="hardAlpha"/>
<feOffset dy="4"/>
<feGaussianBlur stdDeviation="2"/>
<feComposite in2="hardAlpha" operator="out"/>
<feColorMatrix type="matrix" values="0 0 0 0 0 0 0 0 0 0 0 0 0 0 0 0 0 0 0.25 0"/>
<feBlend mode="normal" in2="BackgroundImageFix" result="effect1_dropShadow_9_25"/>
<feBlend mode="normal" in="SourceGraphic" in2="effect1_dropShadow_9_25" result="shape"/>
</filter>
<filter id="filter1_d_9_25" x="110.281" y="22.125" width="177.185" height="50.5" filterUnits="userSpaceOnUse" color-interpolation-filters="sRGB">
<feFlood flood-opacity="0" result="BackgroundImageFix"/>
<feColorMatrix in="SourceAlpha" type="matrix" values="0 0 0 0 0 0 0 0 0 0 0 0 0 0 0 0 0 0 127 0" result="hardAlpha"/>
<feOffset dy="4"/>
<feGaussianBlur stdDeviation="2"/>
<feComposite in2="hardAlpha" operator="out"/>
<feColorMatrix type="matrix" values="0 0 0 0 0 0 0 0 0 0 0 0 0 0 0 0 0 0 0.25 0"/>
<feBlend mode="normal" in2="BackgroundImageFix" result="effect1_dropShadow_9_25"/>
<feBlend mode="normal" in="SourceGraphic" in2="effect1_dropShadow_9_25" result="shape"/>
</filter>
</defs>
</svg>
